<svg width="1440" height="4942" viewBox="0 0 1440 4942" fill="none" xmlns="http://www.w3.org/2000/svg">
<g clip-path="url(#clip0_106_2)">
<rect width="1440" height="4942" fill="#0B0B0F"/>
<g opacity="0.5">
<path d="M139.829 4748.99C148.515 4783.29 172.823 4811.95 209.426 4834.4C246.031 4856.84 294.905 4873.05 352.645 4882.45C468.125 4901.24 618.974 4892.76 777.81 4852.54C936.646 4812.31 1073.35 4747.97 1165.97 4676.49C1212.28 4640.74 1247.55 4603.23 1269.06 4566.06C1290.56 4528.9 1298.3 4492.13 1289.62 4457.82C1280.93 4423.52 1256.62 4394.86 1220.02 4372.42C1183.41 4349.97 1134.54 4333.76 1076.8 4324.37C961.319 4305.58 810.47 4314.06 651.634 4354.28C492.798 4394.5 356.095 4458.84 263.477 4530.33C217.168 4566.07 181.899 4603.59 160.389 4640.75C138.88 4677.91 131.142 4714.69 139.829 4748.99Z" stroke="url(#paint0_linear_106_2)"/>
<path d="M-120.778 4814.98C-108.138 4864.9 -72.7719 4906.58 -19.5567 4939.21C33.6612 4971.84 104.702 4995.4 188.613 5009.06C356.434 5036.36 575.639 5024.04 806.44 4965.59C1037.24 4907.15 1235.89 4813.65 1370.49 4709.76C1437.79 4657.82 1489.05 4603.29 1520.33 4549.26C1551.6 4495.24 1562.86 4441.74 1550.22 4391.83C1537.58 4341.92 1502.22 4300.23 1449 4267.6C1395.78 4234.97 1324.74 4211.41 1240.83 4197.76C1073.01 4170.45 853.805 4182.77 623.004 4241.22C392.204 4299.67 193.554 4393.16 58.9562 4497.05C-8.34327 4548.99 -59.6097 4603.52 -90.8823 4657.55C-122.153 4711.58 -133.417 4765.07 -120.778 4814.98Z" stroke="url(#paint1_linear_106_2)"/>
<path d="M-437.887 4895.29C-420.438 4964.19 -371.616 5021.73 -298.186 5066.75C-224.753 5111.78 -126.74 5144.28 -10.9833 5163.11C220.528 5200.79 522.909 5183.79 841.277 5103.16C1159.65 5022.54 1433.67 4893.58 1619.35 4750.26C1712.19 4678.6 1782.93 4603.37 1826.08 4528.82C1869.23 4454.27 1884.78 4380.44 1867.33 4311.53C1849.88 4242.62 1801.06 4185.09 1727.63 4140.06C1654.2 4095.03 1556.18 4062.54 1440.43 4043.7C1208.92 4006.03 906.535 4023.03 588.167 4103.65C269.799 4184.27 -4.22907 4313.24 -189.908 4456.56C-282.748 4528.21 -353.481 4603.45 -396.632 4678C-439.782 4752.54 -455.337 4826.38 -437.887 4895.29Z" stroke="url(#paint2_linear_106_2)"/>
</g>
<g opacity="0.5">
<path opacity="0.0344828" d="M416 2946.72C408.954 2938.33 398.353 2933.15 384.487 2931.07C370.613 2928.99 353.533 2930.02 333.648 2933.99C293.88 2941.94 243.104 2961.61 184.758 2991.3C68.0798 3050.65 -78.6719 3149.94 -227.822 3275.09C-376.972 3400.24 -500.232 3527.52 -578.948 3632.12C-618.311 3684.43 -646.501 3731.02 -661.235 3768.8C-668.602 3787.69 -672.585 3804.33 -672.945 3818.36C-673.304 3832.37 -670.046 3843.71 -663 3852.11C-655.955 3860.51 -645.354 3865.68 -631.488 3867.76C-617.614 3869.85 -600.533 3868.81 -580.649 3864.84C-540.881 3856.89 -490.105 3837.22 -431.759 3807.54C-315.081 3748.18 -168.329 3648.89 -19.1789 3523.74C129.971 3398.59 253.231 3271.31 331.947 3166.71C371.311 3114.4 399.501 3067.82 414.234 3030.03C421.601 3011.14 425.584 2994.5 425.944 2980.47C426.303 2966.46 423.045 2955.12 416 2946.72Z" stroke="#2B2C3B" stroke-width="2"/>
<path opacity="0.0689655" d="M374.492 2895.79C366.742 2888.04 355.73 2883.81 341.735 2882.95C327.733 2882.08 310.807 2884.6 291.345 2890.29C252.421 2901.68 203.553 2925.7 148.016 2960.35C36.9546 3029.65 -100.585 3141.35 -238.26 3279.03C-375.935 3416.7 -487.632 3554.24 -556.933 3665.3C-591.588 3720.84 -615.61 3769.71 -626.994 3808.63C-632.687 3828.09 -635.204 3845.02 -634.34 3859.02C-633.477 3873.02 -629.243 3884.03 -621.492 3891.78C-613.742 3899.53 -602.73 3903.76 -588.735 3904.63C-574.732 3905.49 -557.807 3902.97 -538.345 3897.28C-499.421 3885.9 -450.553 3861.87 -395.015 3827.22C-283.954 3757.92 -146.414 3646.22 -8.73965 3508.55C128.935 3370.87 240.633 3233.33 309.933 3122.27C344.588 3066.73 368.61 3017.87 379.995 2978.94C385.687 2959.48 388.204 2942.55 387.34 2928.55C386.477 2914.56 382.243 2903.55 374.492 2895.79Z" stroke="#2B2C3B" stroke-width="2"/>
<path opacity="0.103448" d="M329.194 2848.66C320.798 2841.61 309.459 2838.35 295.442 2838.71C281.417 2839.07 264.776 2843.05 245.884 2850.42C208.1 2865.15 161.512 2893.34 109.206 2932.71C4.60769 3011.42 -122.674 3134.68 -247.826 3283.83C-372.977 3432.98 -472.262 3579.74 -531.62 3696.41C-561.302 3754.76 -580.974 3805.54 -588.922 3845.3C-592.897 3865.19 -593.929 3882.27 -591.848 3896.14C-589.769 3910.01 -584.591 3920.61 -576.194 3927.66C-567.798 3934.7 -556.459 3937.96 -542.442 3937.6C-528.417 3937.24 -511.776 3933.26 -492.884 3925.89C-455.1 3911.16 -408.512 3882.97 -356.206 3843.6C-251.608 3764.89 -124.326 3641.63 0.825511 3492.48C125.977 3343.33 225.262 3196.58 284.62 3079.9C314.302 3021.55 333.974 2970.78 341.922 2931.01C345.897 2911.12 346.929 2894.04 344.848 2880.17C342.769 2866.3 337.591 2855.7 329.194 2848.66Z" stroke="#2B2C3B" stroke-width="2"/>
<path opacity="0.137931" d="M280.451 2805.62C271.473 2799.34 259.893 2797.08 245.961 2798.66C232.021 2800.24 215.79 2805.66 197.612 2814.64C161.256 2832.61 117.302 2864.76 68.6258 2908.53C-28.7139 2996.06 -144.768 3129.95 -256.444 3289.44C-368.121 3448.93 -454.238 3603.77 -503.2 3725.18C-527.684 3785.89 -542.856 3838.19 -547.308 3878.5C-549.534 3898.65 -549.074 3915.76 -545.792 3929.4C-542.512 3943.03 -536.43 3953.14 -527.451 3959.43C-518.472 3965.71 -506.892 3967.97 -492.961 3966.39C-479.021 3964.81 -462.789 3959.39 -444.611 3950.41C-408.256 3932.44 -364.301 3900.29 -315.625 3856.52C-218.286 3768.99 -102.231 3635.1 9.44487 3475.61C121.121 3316.12 207.238 3161.28 256.2 3039.87C280.684 2979.16 295.856 2926.86 300.308 2886.55C302.535 2866.4 302.075 2849.29 298.792 2835.65C295.512 2822.02 289.43 2811.91 280.451 2805.62Z" stroke="#2B2C3B" stroke-width="2"/>
<path opacity="0.172414" d="M228.634 2766.98C219.141 2761.5 207.409 2760.26 193.668 2763.05C179.918 2765.84 164.221 2772.65 146.895 2783.19C112.244 2804.26 71.2588 2840.11 26.5831 2887.96C-62.7572 2983.64 -166.701 3127.13 -264.052 3295.75C-361.403 3464.36 -433.696 3626.13 -471.891 3751.34C-490.99 3813.95 -501.546 3867.37 -502.468 3907.92C-502.93 3928.19 -500.98 3945.19 -496.522 3958.49C-492.066 3971.79 -485.126 3981.33 -475.634 3986.81C-466.141 3992.29 -454.409 3993.53 -440.668 3990.74C-426.918 3987.95 -411.221 3981.14 -393.895 3970.6C-359.244 3949.53 -318.259 3913.68 -273.583 3865.83C-184.243 3770.15 -80.2986 3626.66 17.0521 3458.04C114.403 3289.43 186.696 3127.66 224.891 3002.45C243.991 2939.84 254.546 2886.42 255.469 2845.87C255.93 2825.6 253.981 2808.6 249.522 2795.3C245.066 2782 238.126 2772.46 228.634 2766.98Z" stroke="#2B2C3B" stroke-width="2"/>
<path opacity="0.206897" d="M174.136 2732.98C164.202 2728.35 152.406 2728.14 138.961 2732.11C125.507 2736.09 110.463 2744.24 94.1213 2756.25C61.4386 2780.26 23.7336 2819.55 -16.6019 2871.11C-97.2628 2974.21 -188.305 3126.21 -270.59 3302.67C-352.874 3479.13 -410.794 3646.58 -437.93 3774.65C-451.5 3838.69 -457.36 3892.83 -454.745 3933.3C-453.437 3953.53 -450.014 3970.3 -444.413 3983.16C-438.815 3996.01 -431.07 4004.91 -421.136 4009.55C-411.202 4014.18 -399.406 4014.39 -385.961 4010.42C-372.507 4006.44 -357.463 3998.28 -341.121 3986.28C-308.439 3962.27 -270.734 3922.98 -230.398 3871.42C-149.737 3768.31 -58.6948 3616.31 23.5896 3439.85C105.874 3263.39 163.794 3095.94 190.93 2967.88C204.5 2903.84 210.36 2849.7 207.745 2809.23C206.437 2789 203.014 2772.23 197.413 2759.37C191.815 2746.51 184.07 2737.61 174.136 2732.98Z" stroke="#2B2C3B" stroke-width="2"/>
<path opacity="0.241379" d="M117.374 2703.84C107.074 2700.09 95.3042 2700.9 82.2561 2706.04C69.2001 2711.17 54.9244 2720.6 39.6912 2733.99C9.22547 2760.76 -24.9118 2803.18 -60.6001 2858.06C-131.968 2967.8 -209.416 3127.16 -276.008 3310.12C-342.6 3493.08 -385.705 3664.94 -401.576 3794.88C-409.513 3859.86 -410.632 3914.31 -404.5 3954.39C-401.434 3974.44 -396.562 3990.84 -389.861 4003.17C-383.165 4015.49 -374.673 4023.68 -364.374 4027.43C-354.074 4031.17 -342.304 4030.36 -329.256 4025.23C-316.2 4020.09 -301.924 4010.66 -286.691 3997.27C-256.225 3970.5 -222.088 3928.08 -186.4 3873.2C-115.032 3763.46 -37.5839 3604.1 29.0079 3421.14C95.5997 3238.18 138.705 3066.32 154.576 2936.38C162.513 2871.4 163.632 2816.96 157.5 2776.87C154.434 2756.82 149.562 2740.42 142.862 2728.09C136.165 2715.78 127.674 2707.58 117.374 2703.84Z" stroke="#2B2C3B" stroke-width="2"/>
<path opacity="0.275862" d="M58.778 2679.73C48.1906 2676.9 36.5369 2678.74 23.9857 2684.98C11.427 2691.24 -1.97215 2701.88 -15.9809 2716.54C-43.9977 2745.86 -74.3076 2791.1 -105.077 2848.88C-166.608 2964.43 -229.873 3129.93 -280.265 3318C-330.658 3506.06 -358.621 3681.03 -363.106 3811.86C-365.349 3877.28 -361.719 3931.62 -352.116 3971.02C-347.315 3990.72 -341.032 4006.63 -333.283 4018.33C-325.538 4030.02 -316.365 4037.44 -305.778 4040.27C-295.19 4043.11 -283.537 4041.27 -270.985 4035.02C-258.427 4028.77 -245.027 4018.13 -231.019 4003.46C-203.002 3974.14 -172.692 3928.91 -141.923 3871.12C-80.3913 3755.58 -17.1269 3590.08 33.2656 3402.01C83.658 3213.94 111.621 3038.98 116.107 2908.15C118.35 2842.72 114.72 2788.39 105.117 2748.99C100.315 2729.29 94.0326 2713.37 86.2831 2701.68C78.5382 2689.99 69.3655 2682.57 58.778 2679.73Z" stroke="#2B2C3B" stroke-width="2"/>
<path opacity="0.310345" d="M-1.20526 2660.8C-11.9997 2658.9 -23.4487 2661.75 -35.4074 2669.07C-47.3734 2676.39 -59.7939 2688.16 -72.4716 2703.99C-97.8263 2735.64 -124.078 2783.35 -149.695 2843.59C-200.921 2964.06 -249.52 3134.45 -283.33 3326.19C-317.139 3517.93 -329.747 3694.67 -322.813 3825.39C-319.345 3890.76 -310.994 3944.57 -297.993 3982.99C-291.493 4002.19 -283.847 4017.5 -275.108 4028.48C-266.374 4039.45 -256.589 4046.04 -245.795 4047.94C-235 4049.84 -223.551 4047 -211.593 4039.68C-199.627 4032.35 -187.206 4020.58 -174.528 4004.76C-149.174 3973.1 -122.922 3925.4 -97.3054 3865.15C-46.0789 3744.69 2.52023 3574.3 36.3298 3382.55C70.1394 3190.81 82.7469 3014.08 75.8127 2883.35C72.3452 2817.98 63.9935 2764.17 50.9933 2725.76C44.493 2706.55 36.847 2691.24 28.1077 2680.27C19.3737 2669.3 9.58914 2662.71 -1.20526 2660.8Z" stroke="#2B2C3B" stroke-width="2"/>
<path opacity="0.344828" d="M-62.1194 2647.15C-73.0386 2646.2 -84.1959 2650.03 -95.4712 2658.37C-106.753 2666.71 -118.101 2679.51 -129.351 2696.39C-151.85 2730.13 -173.844 2779.94 -194.113 2842.19C-234.645 2966.66 -268.209 3140.64 -285.178 3334.6C-302.148 3528.56 -299.304 3705.72 -281.003 3835.34C-271.851 3900.16 -258.841 3953.04 -242.542 3990.17C-234.393 4008.74 -225.442 4023.32 -215.779 4033.49C-206.122 4043.66 -195.801 4049.37 -184.881 4050.33C-173.962 4051.28 -162.805 4047.45 -151.53 4039.12C-140.248 4030.78 -128.9 4017.97 -117.65 4001.1C-95.1503 3967.36 -73.1564 3917.54 -52.8878 3855.3C-12.3558 3730.82 21.2081 3556.85 38.1775 3362.89C55.1468 3168.93 52.3031 2991.77 34.0019 2862.14C24.8501 2797.32 11.8405 2744.45 -4.45835 2707.31C-12.608 2688.74 -21.559 2674.16 -31.2216 2663.99C-40.8784 2653.82 -51.2002 2648.11 -62.1194 2647.15Z" stroke="#2B2C3B" stroke-width="2"/>
<path opacity="0.37931" d="M-123.5 2638.84C-134.461 2638.84 -145.242 2643.63 -155.748 2652.92C-166.26 2662.21 -176.448 2675.96 -186.185 2693.75C-205.658 2729.32 -223.227 2780.86 -237.993 2844.64C-267.522 2972.17 -285.796 3148.41 -285.796 3343.11C-285.796 3537.81 -267.522 3714.05 -237.993 3841.58C-223.227 3905.36 -205.658 3956.9 -186.185 3992.47C-176.448 4010.26 -166.26 4024.01 -155.748 4033.3C-145.242 4042.58 -134.461 4047.38 -123.5 4047.38C-112.539 4047.38 -101.759 4042.58 -91.2528 4033.3C-80.7404 4024.01 -70.5524 4010.26 -60.8155 3992.47C-41.3422 3956.9 -23.7735 3905.36 -9.00719 3841.58C20.5218 3714.05 38.7952 3537.81 38.7952 3343.11C38.7952 3148.41 20.5218 2972.17 -9.00719 2844.64C-23.7735 2780.86 -41.3422 2729.32 -60.8155 2693.75C-70.5524 2675.96 -80.7404 2662.21 -91.2528 2652.92C-101.759 2643.63 -112.539 2638.84 -123.5 2638.84Z" stroke="#2B2C3B" stroke-width="2"/>
<path opacity="0.413793" d="M-184.882 2635.89C-195.801 2636.84 -206.123 2642.56 -215.779 2652.72C-225.442 2662.9 -234.393 2677.48 -242.543 2696.05C-258.841 2733.18 -271.851 2786.06 -281.003 2850.88C-299.304 2980.5 -302.148 3157.66 -285.178 3351.62C-268.209 3545.58 -234.645 3719.56 -194.113 3844.03C-173.845 3906.28 -151.851 3956.09 -129.351 3989.83C-118.101 4006.7 -106.753 4019.51 -95.4714 4027.85C-84.1961 4036.18 -73.0388 4040.02 -62.1196 4039.06C-51.2004 4038.11 -40.8786 4032.39 -31.2218 4022.23C-21.5592 4012.06 -12.6081 3997.47 -4.45852 3978.91C11.8403 3941.77 24.8499 3888.89 34.0017 3824.07C52.303 3694.45 55.1467 3517.29 38.1773 3323.33C21.2079 3129.37 -12.356 2955.4 -52.888 2830.92C-73.1566 2768.67 -95.1505 2718.86 -117.65 2685.12C-128.9 2668.25 -140.248 2655.44 -151.53 2647.1C-162.805 2638.77 -173.962 2634.93 -184.882 2635.89Z" stroke="#2B2C3B" stroke-width="2"/>
<path opacity="0.448276" d="M-245.795 2638.28C-256.59 2640.18 -266.374 2646.77 -275.108 2657.74C-283.848 2668.72 -291.494 2684.02 -297.994 2703.23C-310.994 2741.65 -319.346 2795.46 -322.813 2860.83C-329.748 2991.55 -317.14 3168.28 -283.33 3360.03C-249.521 3551.77 -200.922 3722.16 -149.695 3842.63C-124.079 3902.87 -97.8269 3950.58 -72.4722 3982.23C-59.7945 3998.05 -47.3739 4009.82 -35.408 4017.15C-23.4492 4024.47 -12.0002 4027.32 -1.2058 4025.41C9.5886 4023.51 19.3731 4016.92 28.1072 4005.95C36.8465 3994.97 44.4925 3979.67 50.9928 3960.46C63.993 3922.04 72.3447 3868.24 75.8122 3802.86C82.7464 3672.14 70.1388 3495.41 36.3293 3303.66C2.51969 3111.92 -46.0794 2941.53 -97.306 2821.06C-122.922 2760.82 -149.174 2713.11 -174.529 2681.46C-187.207 2665.64 -199.627 2653.87 -211.593 2646.54C-223.552 2639.22 -235.001 2636.37 -245.795 2638.28Z" stroke="#2B2C3B" stroke-width="2"/>
<path opacity="0.482759" d="M-305.778 2645.95C-316.366 2648.78 -325.538 2656.2 -333.283 2667.89C-341.033 2679.59 -347.315 2695.5 -352.117 2715.2C-361.72 2754.6 -365.35 2808.94 -363.107 2874.36C-358.621 3005.19 -330.658 3180.15 -280.266 3368.22C-229.873 3556.29 -166.609 3721.79 -105.078 3837.34C-74.3082 3895.12 -43.9983 3940.36 -15.9815 3969.68C-1.97271 3984.34 11.4264 3994.98 23.9852 4001.24C36.5364 4007.48 48.19 4009.32 58.7775 4006.49C69.3649 4003.65 78.5377 3996.23 86.2825 3984.54C94.0321 3972.85 100.315 3956.93 105.116 3937.23C114.719 3897.83 118.349 3843.5 116.106 3778.07C111.62 3647.24 83.6575 3472.28 33.265 3284.21C-17.1275 3096.14 -80.3918 2930.64 -141.923 2815.1C-172.693 2757.31 -203.002 2712.08 -231.019 2682.76C-245.028 2668.09 -258.427 2657.45 -270.986 2651.2C-283.537 2644.95 -295.191 2643.11 -305.778 2645.95Z" stroke="#2B2C3B" stroke-width="2"/>
<path opacity="0.517241" d="M-364.374 2658.79C-374.674 2662.54 -383.165 2670.73 -389.862 2683.05C-396.563 2695.37 -401.434 2711.78 -404.5 2731.82C-410.632 2771.91 -409.513 2826.35 -401.577 2891.33C-385.705 3021.27 -342.6 3193.13 -276.008 3376.09C-209.416 3559.05 -131.968 3718.41 -60.6006 3828.16C-24.9123 3883.03 9.22505 3925.46 39.6907 3952.23C54.924 3965.61 69.1997 3975.05 82.2557 3980.18C95.3038 3985.31 107.073 3986.13 117.373 3982.38C127.673 3978.63 136.164 3970.44 142.861 3958.12C149.562 3945.8 154.433 3929.39 157.5 3909.35C163.632 3869.26 162.513 3814.82 154.576 3749.84C138.705 3619.9 95.5993 3448.04 29.0075 3265.08C-37.5843 3082.12 -115.032 2922.76 -186.4 2813.01C-222.088 2758.14 -256.226 2715.71 -286.691 2688.94C-301.925 2675.56 -316.2 2666.12 -329.256 2660.99C-342.304 2655.86 -354.074 2655.04 -364.374 2658.79Z" stroke="#2B2C3B" stroke-width="2"/>
<path opacity="0.551724" d="M-421.136 2676.67C-431.07 2681.3 -438.815 2690.2 -444.413 2703.06C-450.014 2715.92 -453.437 2732.69 -454.745 2752.92C-457.36 2793.39 -451.5 2847.53 -437.93 2911.57C-410.794 3039.64 -352.874 3207.08 -270.59 3383.54C-188.305 3560 -97.2628 3712.01 -16.602 3815.11C23.7335 3866.67 61.4384 3905.96 94.1212 3929.97C110.463 3941.98 125.507 3950.13 138.96 3954.11C152.406 3958.08 164.202 3957.87 174.136 3953.24C184.07 3948.61 191.815 3939.71 197.413 3926.85C203.014 3913.99 206.437 3897.22 207.745 3876.99C210.36 3836.52 204.5 3782.38 190.93 3718.34C163.794 3590.27 105.874 3422.83 23.5895 3246.37C-58.6949 3069.91 -149.737 2917.9 -230.398 2814.8C-270.734 2763.24 -308.439 2723.95 -341.121 2699.94C-357.463 2687.93 -372.507 2679.78 -385.961 2675.8C-399.406 2671.83 -411.202 2672.04 -421.136 2676.67Z" stroke="#2B2C3B" stroke-width="2"/>
<path opacity="0.586207" d="M-475.634 2699.41C-485.126 2704.89 -492.066 2714.43 -496.522 2727.73C-500.981 2741.03 -502.93 2758.03 -502.469 2778.3C-501.546 2818.84 -490.991 2872.27 -471.891 2934.88C-433.696 3060.09 -361.403 3221.86 -264.052 3390.47C-166.701 3559.09 -62.7574 3702.58 26.5828 3798.26C71.2585 3846.11 112.244 3881.96 146.895 3903.03C164.221 3913.57 179.918 3920.38 193.667 3923.17C207.408 3925.96 219.141 3924.72 228.634 3919.24C238.126 3913.76 245.066 3904.22 249.522 3890.92C253.98 3877.62 255.929 3860.62 255.468 3840.35C254.546 3799.8 243.99 3746.38 224.891 3683.77C186.696 3558.56 114.403 3396.79 17.0518 3228.18C-80.2989 3059.56 -184.243 2916.07 -273.583 2820.39C-318.259 2772.54 -359.244 2736.69 -393.895 2715.62C-411.221 2705.08 -426.919 2698.27 -440.668 2695.48C-454.409 2692.69 -466.141 2693.93 -475.634 2699.41Z" stroke="#2B2C3B" stroke-width="2"/>
<path opacity="0.62069" d="M-527.451 2726.79C-536.43 2733.08 -542.512 2743.19 -545.792 2756.82C-549.074 2770.46 -549.534 2787.57 -547.308 2807.72C-542.856 2848.03 -527.684 2900.33 -503.2 2961.04C-454.238 3082.45 -368.121 3237.29 -256.444 3396.78C-144.768 3556.27 -28.7138 3690.16 68.6258 3777.69C117.302 3821.46 161.256 3853.61 197.612 3871.58C215.79 3880.56 232.021 3885.98 245.961 3887.56C259.893 3889.14 271.473 3886.88 280.451 3880.6C289.43 3874.31 295.512 3864.2 298.792 3850.57C302.075 3836.93 302.535 3819.82 300.308 3799.67C295.856 3759.36 280.684 3707.06 256.2 3646.35C207.238 3524.94 121.121 3370.1 9.4449 3210.61C-102.231 3051.12 -218.286 2917.23 -315.625 2829.7C-364.301 2785.93 -408.256 2753.78 -444.611 2735.81C-462.789 2726.83 -479.021 2721.41 -492.961 2719.83C-506.892 2718.25 -518.472 2720.51 -527.451 2726.79Z" stroke="#2B2C3B" stroke-width="2"/>
<path opacity="0.655172" d="M-576.194 2758.56C-584.591 2765.61 -589.769 2776.21 -591.848 2790.07C-593.929 2803.95 -592.897 2821.03 -588.922 2840.91C-580.974 2880.68 -561.302 2931.46 -531.62 2989.8C-472.262 3106.48 -372.977 3253.23 -247.826 3402.38C-122.674 3551.53 4.60772 3674.79 109.206 3753.51C161.512 3792.87 208.1 3821.06 245.884 3835.8C264.776 3843.16 281.417 3847.15 295.442 3847.51C309.459 3847.87 320.798 3844.61 329.194 3837.56C337.591 3830.52 342.769 3819.91 344.848 3806.05C346.929 3792.17 345.897 3775.09 341.922 3755.21C333.974 3715.44 314.302 3664.67 284.62 3606.32C225.262 3489.64 125.977 3342.89 0.825505 3193.74C-124.326 3044.59 -251.608 2921.33 -356.206 2842.61C-408.512 2803.25 -455.1 2775.06 -492.884 2760.33C-511.776 2752.96 -528.417 2748.98 -542.442 2748.62C-556.459 2748.26 -567.798 2751.52 -576.194 2758.56Z" stroke="#2B2C3B" stroke-width="2"/>
<path opacity="0.689655" d="M-621.492 2794.44C-629.243 2802.19 -633.477 2813.2 -634.34 2827.2C-635.204 2841.2 -632.687 2858.12 -626.995 2877.59C-615.61 2916.51 -591.588 2965.38 -556.933 3020.92C-487.633 3131.98 -375.935 3269.52 -238.26 3407.19C-100.586 3544.87 36.9543 3656.56 148.015 3725.86C203.553 3760.52 252.421 3784.54 291.345 3795.93C310.807 3801.62 327.732 3804.14 341.735 3803.27C355.73 3802.41 366.742 3798.17 374.492 3790.42C382.243 3782.67 386.477 3771.66 387.34 3757.67C388.204 3743.66 385.687 3726.74 379.994 3707.28C368.61 3668.35 344.587 3619.48 309.933 3563.95C240.632 3452.89 128.935 3315.35 -8.73999 3177.67C-146.415 3040 -283.955 2928.3 -395.016 2859C-450.553 2824.34 -499.421 2800.32 -538.345 2788.94C-557.807 2783.24 -574.733 2780.73 -588.736 2781.59C-602.73 2782.45 -613.742 2786.69 -621.492 2794.44Z" stroke="#2B2C3B" stroke-width="2"/>
<path opacity="0.724138" d="M-663.001 2834.11C-670.046 2842.5 -673.304 2853.84 -672.945 2867.86C-672.585 2881.88 -668.602 2898.52 -661.235 2917.42C-646.502 2955.2 -618.311 3001.79 -578.948 3054.09C-500.232 3158.69 -376.972 3285.97 -227.822 3411.13C-78.672 3536.28 68.0797 3635.56 184.758 3694.92C243.104 3724.6 293.88 3744.27 333.648 3752.22C353.533 3756.2 370.613 3757.23 384.487 3755.15C398.353 3753.07 408.954 3747.89 416 3739.49C423.045 3731.1 426.303 3719.76 425.944 3705.74C425.584 3691.72 421.601 3675.08 414.234 3656.18C399.501 3618.4 371.31 3571.81 331.947 3519.51C253.231 3414.91 129.971 3287.63 -19.179 3162.47C-168.329 3037.32 -315.081 2938.04 -431.759 2878.68C-490.105 2849 -540.881 2829.33 -580.649 2821.38C-600.534 2817.4 -617.614 2816.37 -631.488 2818.45C-645.354 2820.53 -655.955 2825.71 -663.001 2834.11Z" stroke="#2B2C3B" stroke-width="2"/>
<path opacity="0.758621" d="M-700.402 2877.22C-706.689 2886.2 -708.947 2897.78 -707.367 2911.71C-705.786 2925.65 -700.368 2941.88 -691.382 2960.06C-673.412 2996.41 -641.269 3040.37 -597.496 3089.04C-509.963 3186.38 -376.079 3302.44 -216.589 3414.11C-57.0988 3525.79 97.7477 3611.91 219.155 3660.87C279.867 3685.35 332.164 3700.52 372.473 3704.98C392.628 3707.2 409.734 3706.74 423.374 3703.46C437.006 3700.18 447.115 3694.1 453.402 3685.12C459.689 3676.14 461.946 3664.56 460.366 3650.63C458.786 3636.69 453.368 3620.46 444.382 3602.28C426.412 3565.92 394.268 3521.97 350.496 3473.29C262.963 3375.95 129.079 3259.9 -30.4113 3148.22C-189.901 3036.55 -344.748 2950.43 -466.155 2901.47C-526.867 2876.98 -579.164 2861.81 -619.473 2857.36C-639.629 2855.13 -656.734 2855.59 -670.374 2858.88C-684.006 2862.16 -694.115 2868.24 -700.402 2877.22Z" stroke="#2B2C3B" stroke-width="2"/>
<path opacity="0.793103" d="M-733.414 2923.4C-738.894 2932.9 -740.134 2944.63 -737.346 2958.37C-734.556 2972.12 -727.744 2987.82 -717.208 3005.14C-696.137 3039.79 -660.286 3080.78 -612.438 3125.46C-516.754 3214.8 -373.264 3318.74 -204.648 3416.09C-36.0315 3513.44 125.731 3585.73 250.944 3623.93C313.558 3643.03 366.979 3653.58 407.523 3654.51C427.795 3654.97 444.796 3653.02 458.098 3648.56C471.392 3644.1 480.933 3637.16 486.413 3627.67C491.894 3618.18 493.133 3606.45 490.345 3592.71C487.555 3578.96 480.743 3563.26 470.208 3545.93C449.137 3511.28 413.285 3470.3 365.437 3425.62C269.754 3336.28 126.264 3232.34 -42.3525 3134.99C-210.969 3037.64 -372.732 2965.34 -497.945 2927.15C-560.559 2908.05 -613.979 2897.49 -654.523 2896.57C-674.796 2896.11 -691.796 2898.06 -705.098 2902.52C-718.392 2906.97 -727.933 2913.91 -733.414 2923.4Z" stroke="#2B2C3B" stroke-width="2"/>
<path opacity="0.827586" d="M-761.783 2972.27C-766.416 2982.2 -766.628 2994 -762.653 3007.45C-758.675 3020.9 -750.521 3035.94 -738.516 3052.29C-714.505 3084.97 -675.218 3122.67 -623.658 3163.01C-520.552 3243.67 -368.549 3334.71 -192.089 3417C-15.6299 3499.28 151.818 3557.2 279.884 3584.34C343.924 3597.91 398.061 3603.77 438.531 3601.15C458.767 3599.84 475.533 3596.42 488.396 3590.82C501.251 3585.22 510.15 3577.48 514.783 3567.54C519.415 3557.61 519.627 3545.81 515.652 3532.37C511.675 3518.91 503.521 3503.87 491.515 3487.53C467.504 3454.85 428.217 3417.14 376.657 3376.8C273.551 3296.14 121.548 3205.1 -54.9113 3122.82C-231.371 3040.53 -398.819 2982.61 -526.884 2955.48C-590.925 2941.91 -645.062 2936.05 -685.532 2938.66C-705.768 2939.97 -722.533 2943.39 -735.396 2948.99C-748.251 2954.59 -757.151 2962.34 -761.783 2972.27Z" stroke="#2B2C3B" stroke-width="2"/>
<path opacity="0.862069" d="M-785.294 3023.4C-789.043 3033.7 -788.227 3045.47 -783.095 3058.52C-777.96 3071.58 -768.525 3085.85 -755.141 3101.09C-728.374 3131.55 -685.949 3165.69 -631.071 3201.38C-521.327 3272.74 -361.967 3350.19 -179.008 3416.78C3.95178 3483.38 175.811 3526.48 305.754 3542.35C370.733 3550.29 425.175 3551.41 465.263 3545.28C485.308 3542.21 501.711 3537.34 514.037 3530.64C526.356 3523.94 534.547 3515.45 538.295 3505.15C542.044 3494.85 541.228 3483.08 536.096 3470.03C530.961 3456.98 521.527 3442.7 508.142 3427.47C481.375 3397 438.95 3362.86 384.072 3327.18C274.328 3255.81 114.968 3178.36 -67.9911 3111.77C-250.951 3045.18 -422.81 3002.07 -552.753 2986.2C-617.732 2978.26 -672.174 2977.14 -712.262 2983.28C-732.307 2986.34 -748.71 2991.21 -761.036 2997.91C-773.355 3004.61 -781.545 3013.1 -785.294 3023.4Z" stroke="#2B2C3B" stroke-width="2"/>
<path opacity="0.896552" d="M-803.77 3076.37C-806.607 3086.96 -804.768 3098.61 -798.518 3111.16C-792.265 3123.72 -781.622 3137.12 -766.961 3151.13C-737.64 3179.14 -692.402 3209.45 -634.622 3240.22C-519.075 3301.75 -353.572 3365.02 -165.505 3415.41C22.562 3465.8 197.524 3493.77 328.356 3498.25C393.78 3500.5 448.112 3496.87 487.513 3487.26C507.214 3482.46 523.131 3476.18 534.826 3468.43C546.514 3460.68 553.933 3451.51 556.77 3440.92C559.607 3430.34 557.768 3418.68 551.518 3406.13C545.265 3393.57 534.622 3380.17 519.961 3366.16C490.64 3338.15 445.402 3307.84 387.622 3277.07C272.075 3215.54 106.572 3152.27 -81.4948 3101.88C-269.562 3051.49 -444.524 3023.53 -575.356 3019.04C-640.78 3016.8 -695.112 3020.43 -734.513 3030.03C-754.214 3034.83 -770.131 3041.11 -781.826 3048.86C-793.514 3056.61 -800.933 3065.78 -803.77 3076.37Z" stroke="#2B2C3B" stroke-width="2"/>
<path opacity="0.931035" d="M-817.068 3130.72C-818.971 3141.51 -816.124 3152.96 -808.804 3164.92C-801.48 3176.89 -789.71 3189.31 -773.884 3201.99C-742.232 3227.34 -694.525 3253.59 -634.283 3279.21C-513.813 3330.44 -343.426 3379.03 -151.682 3412.84C40.0611 3446.65 216.794 3459.26 347.519 3452.33C412.89 3448.86 466.699 3440.51 505.113 3427.51C524.321 3421.01 539.629 3413.36 550.604 3404.62C561.573 3395.89 568.165 3386.1 570.068 3375.31C571.971 3364.51 569.123 3353.07 561.804 3341.11C554.48 3329.14 542.71 3316.72 526.884 3304.04C495.232 3278.69 447.525 3252.44 387.282 3226.82C266.813 3175.59 96.4258 3126.99 -95.3178 3093.18C-287.061 3059.38 -463.795 3046.77 -594.519 3053.7C-659.89 3057.17 -713.699 3065.52 -752.114 3078.52C-771.321 3085.02 -786.629 3092.67 -797.604 3101.41C-808.573 3110.14 -815.165 3119.93 -817.068 3130.72Z" stroke="#2B2C3B" stroke-width="2"/>
<path opacity="0.965517" d="M-825.087 3186C-826.042 3196.92 -822.207 3208.08 -813.873 3219.36C-805.534 3230.64 -792.727 3241.99 -775.856 3253.24C-742.115 3275.74 -692.301 3297.73 -630.055 3318C-505.579 3358.53 -331.605 3392.09 -137.645 3409.06C56.316 3426.03 233.476 3423.19 363.099 3404.89C427.918 3395.74 480.795 3382.73 517.93 3366.43C536.498 3358.28 551.081 3349.33 561.253 3339.66C571.418 3330.01 577.133 3319.69 578.088 3308.77C579.043 3297.85 575.208 3286.69 566.874 3275.41C558.535 3264.13 545.727 3252.79 528.857 3241.53C495.116 3219.04 445.302 3197.04 383.056 3176.77C258.58 3136.24 84.6059 3102.68 -109.355 3085.71C-303.315 3068.74 -480.475 3071.58 -610.098 3089.88C-674.918 3099.03 -727.794 3112.04 -764.929 3128.34C-783.497 3136.49 -798.081 3145.44 -808.252 3155.11C-818.418 3164.76 -824.132 3175.09 -825.087 3186Z" stroke="#2B2C3B" stroke-width="2"/>
<path d="M-827.768 3241.75C-827.768 3252.71 -822.975 3263.49 -813.69 3274C-804.399 3284.51 -790.651 3294.7 -772.864 3304.44C-737.291 3323.91 -685.75 3341.48 -621.974 3356.25C-494.439 3385.78 -318.202 3404.05 -123.5 3404.05C71.2012 3404.05 247.439 3385.78 374.973 3356.25C438.749 3341.48 490.29 3323.91 525.864 3304.44C543.651 3294.7 557.399 3284.51 566.689 3274C575.974 3263.49 580.767 3252.71 580.767 3241.75C580.767 3230.79 575.974 3220.01 566.689 3209.51C557.399 3198.99 543.651 3188.81 525.864 3179.07C490.29 3159.6 438.749 3142.03 374.973 3127.26C247.439 3097.73 71.2012 3079.46 -123.5 3079.46C-318.202 3079.46 -494.439 3097.73 -621.974 3127.26C-685.75 3142.03 -737.291 3159.6 -772.864 3179.07C-790.651 3188.81 -804.399 3198.99 -813.69 3209.51C-822.975 3220.01 -827.768 3230.79 -827.768 3241.75Z" stroke="#2B2C3B" stroke-width="2"/>
</g>
<g opacity="0.5">
<path opacity="0.0344828" d="M969.929 2112.64C974.837 2118.49 982.235 2122.11 991.96 2123.57C1001.69 2125.03 1013.7 2124.31 1027.7 2121.51C1055.69 2115.91 1091.46 2102.06 1132.57 2081.14C1214.8 2039.31 1318.22 1969.34 1423.35 1881.13C1528.47 1792.92 1615.34 1703.22 1670.81 1629.51C1698.55 1592.65 1718.41 1559.83 1728.78 1533.23C1733.96 1519.93 1736.76 1508.24 1737.01 1498.4C1737.26 1488.57 1734.98 1480.65 1730.07 1474.8C1725.16 1468.95 1717.77 1465.33 1708.04 1463.87C1698.31 1462.41 1686.3 1463.13 1672.31 1465.93C1644.31 1471.53 1608.55 1485.38 1567.43 1506.3C1485.21 1548.13 1381.78 1618.1 1276.65 1706.31C1171.53 1794.52 1084.66 1884.22 1029.19 1957.93C1001.45 1994.79 981.594 2027.61 971.223 2054.21C966.037 2067.51 963.241 2079.2 962.989 2089.04C962.736 2098.87 965.022 2106.79 969.929 2112.64Z" stroke="#2B2C3B" stroke-width="2"/>
<path opacity="0.0689655" d="M999.17 2148.52C1004.57 2153.92 1012.25 2156.88 1022.07 2157.49C1031.89 2158.09 1043.79 2156.33 1057.49 2152.32C1084.89 2144.31 1119.31 2127.39 1158.45 2102.97C1236.71 2054.13 1333.65 1975.41 1430.69 1878.37C1527.72 1781.34 1606.44 1684.4 1655.28 1606.14C1679.7 1567 1696.62 1532.58 1704.63 1505.18C1708.64 1491.48 1710.41 1479.58 1709.8 1469.76C1709.19 1459.94 1706.23 1452.26 1700.83 1446.86C1695.43 1441.46 1687.75 1438.49 1677.93 1437.89C1668.1 1437.28 1656.21 1439.05 1642.51 1443.05C1615.11 1451.07 1580.69 1467.99 1541.55 1492.41C1463.29 1541.24 1366.35 1619.96 1269.31 1717C1172.28 1814.04 1093.56 1910.97 1044.72 1989.24C1020.3 2028.38 1003.38 2062.8 995.366 2090.2C991.359 2103.9 989.594 2115.79 990.2 2125.62C990.805 2135.43 993.772 2143.12 999.17 2148.52Z" stroke="#2B2C3B" stroke-width="2"/>
<path opacity="0.103448" d="M1031.08 2181.73C1036.93 2186.64 1044.85 2188.92 1054.68 2188.67C1064.52 2188.42 1076.21 2185.62 1089.51 2180.43C1116.11 2170.06 1148.93 2150.21 1185.79 2122.47C1259.5 2067 1349.2 1980.13 1437.41 1875C1525.62 1769.88 1595.6 1666.45 1637.42 1584.23C1658.34 1543.11 1672.19 1507.35 1677.79 1479.35C1680.59 1465.35 1681.31 1453.35 1679.85 1443.62C1678.39 1433.89 1674.77 1426.49 1668.92 1421.59C1663.07 1416.68 1655.15 1414.39 1645.32 1414.65C1635.48 1414.9 1623.79 1417.69 1610.49 1422.88C1583.89 1433.25 1551.07 1453.1 1514.21 1480.84C1440.5 1536.32 1350.8 1623.18 1262.59 1728.31C1174.38 1833.43 1104.41 1936.86 1062.58 2019.08C1041.66 2060.2 1027.81 2095.97 1022.21 2123.96C1019.41 2137.96 1018.69 2149.96 1020.15 2159.7C1021.61 2169.42 1025.23 2176.82 1031.08 2181.73Z" stroke="#2B2C3B" stroke-width="2"/>
<path opacity="0.137931" d="M1065.42 2212.05C1071.68 2216.43 1079.76 2218.01 1089.53 2216.9C1099.31 2215.8 1110.72 2211.99 1123.52 2205.67C1149.11 2193.02 1180.07 2170.38 1214.37 2139.53C1282.97 2077.85 1364.76 1983.49 1443.47 1871.08C1522.18 1758.66 1582.88 1649.53 1617.38 1563.98C1634.63 1521.19 1645.32 1484.36 1648.45 1455.98C1650.02 1441.79 1649.69 1429.77 1647.39 1420.2C1645.09 1410.64 1640.83 1403.59 1634.58 1399.21C1628.33 1394.83 1620.24 1393.24 1610.47 1394.35C1600.69 1395.46 1589.28 1399.26 1576.48 1405.59C1550.89 1418.24 1519.93 1440.88 1485.63 1471.72C1417.03 1533.41 1335.24 1627.76 1256.53 1740.18C1177.82 1852.59 1117.12 1961.72 1082.62 2047.28C1065.37 2090.06 1054.68 2126.9 1051.55 2155.27C1049.98 2169.46 1050.31 2181.48 1052.61 2191.05C1054.91 2200.61 1059.17 2207.67 1065.42 2212.05Z" stroke="#2B2C3B" stroke-width="2"/>
<path opacity="0.172414" d="M1101.93 2239.27C1108.54 2243.09 1116.73 2243.97 1126.37 2242.01C1136.01 2240.05 1147.05 2235.27 1159.24 2227.85C1183.64 2213.02 1212.51 2187.77 1243.99 2154.05C1306.95 2086.62 1380.2 1985.49 1448.82 1866.65C1517.44 1747.8 1568.39 1633.8 1595.3 1545.56C1608.76 1501.43 1616.19 1463.81 1616.84 1435.27C1617.17 1421 1615.79 1409.05 1612.67 1399.72C1609.54 1390.39 1604.69 1383.74 1598.07 1379.92C1591.46 1376.1 1583.27 1375.23 1573.63 1377.18C1563.99 1379.14 1552.95 1383.92 1540.76 1391.34C1516.36 1406.17 1487.49 1431.42 1456.01 1465.14C1393.05 1532.57 1319.79 1633.7 1251.18 1752.54C1182.56 1871.39 1131.61 1985.39 1104.7 2073.63C1091.24 2117.76 1083.81 2155.38 1083.16 2183.92C1082.83 2198.19 1084.21 2210.14 1087.33 2219.47C1090.46 2228.8 1095.31 2235.45 1101.93 2239.27Z" stroke="#2B2C3B" stroke-width="2"/>
<path opacity="0.206897" d="M1140.32 2263.23C1147.24 2266.45 1155.47 2266.61 1164.91 2263.82C1174.35 2261.03 1184.92 2255.31 1196.42 2246.86C1219.43 2229.95 1245.99 2202.28 1274.41 2165.95C1331.26 2093.29 1395.42 1986.16 1453.42 1861.79C1511.41 1737.42 1552.23 1619.4 1571.36 1529.16C1580.92 1484.02 1585.04 1445.89 1583.2 1417.4C1582.28 1403.16 1579.87 1391.38 1575.94 1382.35C1572.02 1373.34 1566.6 1367.13 1559.68 1363.9C1552.76 1360.68 1544.52 1360.52 1535.09 1363.3C1525.65 1366.1 1515.08 1371.82 1503.58 1380.27C1480.57 1397.18 1454.01 1424.85 1425.59 1461.18C1368.74 1533.84 1304.58 1640.97 1246.58 1765.34C1188.59 1889.71 1147.77 2007.73 1128.64 2097.97C1119.08 2143.1 1114.96 2181.24 1116.8 2209.73C1117.72 2223.97 1120.13 2235.75 1124.06 2244.78C1127.98 2253.79 1133.4 2260 1140.32 2263.23Z" stroke="#2B2C3B" stroke-width="2"/>
<path opacity="0.241379" d="M1180.31 2283.76C1187.48 2286.37 1195.7 2285.81 1204.85 2282.21C1214.01 2278.61 1224.05 2271.98 1234.77 2262.56C1256.22 2243.72 1280.26 2213.84 1305.41 2175.16C1355.71 2097.83 1410.29 1985.52 1457.23 1856.56C1504.16 1727.61 1534.54 1606.49 1545.72 1514.92C1551.32 1469.12 1552.1 1430.78 1547.79 1402.56C1545.63 1388.45 1542.2 1376.92 1537.5 1368.27C1532.8 1359.63 1526.87 1353.92 1519.69 1351.31C1512.52 1348.7 1504.3 1349.26 1495.15 1352.86C1485.99 1356.46 1475.95 1363.09 1465.23 1372.51C1443.78 1391.35 1419.74 1421.23 1394.59 1459.91C1344.29 1537.24 1289.71 1649.55 1242.77 1778.51C1195.84 1907.46 1165.46 2028.58 1154.27 2120.15C1148.68 2165.95 1147.9 2204.29 1152.21 2232.51C1154.37 2246.62 1157.8 2258.15 1162.5 2266.8C1167.2 2275.44 1173.13 2281.15 1180.31 2283.76Z" stroke="#2B2C3B" stroke-width="2"/>
<path opacity="0.275862" d="M1221.59 2300.74C1228.96 2302.72 1237.1 2301.45 1245.9 2297.06C1254.72 2292.68 1264.13 2285.2 1274 2274.88C1293.72 2254.24 1315.07 2222.38 1336.75 2181.66C1380.11 2100.23 1424.7 1983.59 1460.22 1851.04C1495.74 1718.48 1515.44 1595.17 1518.61 1502.98C1520.19 1456.87 1517.63 1418.6 1510.87 1390.86C1507.49 1377 1503.07 1365.81 1497.63 1357.61C1492.2 1349.41 1485.79 1344.24 1478.41 1342.26C1471.04 1340.28 1462.9 1341.56 1454.09 1345.94C1445.28 1350.33 1435.87 1357.81 1426 1368.13C1406.28 1388.77 1384.93 1420.63 1363.25 1461.35C1319.89 1542.77 1275.3 1659.41 1239.78 1791.97C1204.26 1924.52 1184.56 2047.83 1181.39 2140.03C1179.81 2186.13 1182.37 2224.4 1189.13 2252.14C1192.51 2266.01 1196.93 2277.19 1202.37 2285.4C1207.8 2293.6 1214.21 2298.77 1221.59 2300.74Z" stroke="#2B2C3B" stroke-width="2"/>
<path opacity="0.310345" d="M1263.84 2314.08C1271.36 2315.41 1279.36 2313.43 1287.75 2308.29C1296.14 2303.16 1304.87 2294.89 1313.8 2283.75C1331.65 2261.47 1350.14 2227.86 1368.19 2185.41C1404.29 2100.52 1438.54 1980.43 1462.37 1845.29C1486.2 1710.14 1495.09 1585.58 1490.2 1493.46C1487.76 1447.39 1481.87 1409.49 1472.72 1382.45C1468.15 1368.93 1462.77 1358.17 1456.64 1350.47C1450.51 1342.78 1443.67 1338.19 1436.16 1336.86C1428.64 1335.54 1420.64 1337.51 1412.25 1342.65C1403.86 1347.79 1395.13 1356.06 1386.2 1367.2C1368.35 1389.48 1349.86 1423.08 1331.81 1465.53C1295.71 1550.43 1261.46 1670.51 1237.63 1805.66C1213.8 1940.8 1204.91 2065.36 1209.8 2157.48C1212.24 2203.55 1218.13 2241.45 1227.28 2268.49C1231.85 2282.01 1237.23 2292.77 1243.36 2300.47C1249.49 2308.16 1256.33 2312.76 1263.84 2314.08Z" stroke="#2B2C3B" stroke-width="2"/>
<path opacity="0.344828" d="M1306.76 2323.7C1314.36 2324.37 1322.16 2321.7 1330.07 2315.85C1337.98 2310 1345.96 2301 1353.88 2289.13C1369.72 2265.37 1385.21 2230.29 1399.49 2186.42C1428.06 2098.71 1451.71 1976.09 1463.67 1839.39C1475.63 1702.68 1473.63 1577.82 1460.73 1486.48C1454.28 1440.8 1445.12 1403.55 1433.64 1377.41C1427.91 1364.34 1421.61 1354.09 1414.83 1346.96C1408.06 1339.83 1400.85 1335.85 1393.24 1335.18C1385.64 1334.52 1377.84 1337.18 1369.93 1343.03C1362.02 1348.88 1354.04 1357.88 1346.12 1369.75C1330.28 1393.51 1314.79 1428.59 1300.51 1472.46C1271.94 1560.17 1248.29 1682.79 1236.33 1819.5C1224.37 1956.2 1226.37 2081.06 1239.27 2172.41C1245.72 2218.09 1254.88 2255.33 1266.36 2281.47C1272.09 2294.54 1278.39 2304.79 1285.17 2311.92C1291.94 2319.05 1299.15 2323.03 1306.76 2323.7Z" stroke="#2B2C3B" stroke-width="2"/>
<path opacity="0.37931" d="M1350 2329.56C1357.63 2329.56 1365.17 2326.22 1372.54 2319.71C1379.91 2313.19 1387.07 2303.53 1393.93 2291.01C1407.64 2265.97 1420.01 2229.67 1430.42 2184.72C1451.23 2094.85 1464.11 1970.64 1464.11 1833.41C1464.11 1696.18 1451.23 1571.97 1430.42 1482.1C1420.01 1437.16 1407.64 1400.85 1393.93 1375.81C1387.07 1363.29 1379.91 1353.63 1372.54 1347.11C1365.17 1340.6 1357.63 1337.26 1350 1337.26C1342.37 1337.26 1334.83 1340.6 1327.46 1347.11C1320.09 1353.63 1312.93 1363.29 1306.07 1375.81C1292.36 1400.85 1279.99 1437.16 1269.58 1482.1C1248.77 1571.97 1235.89 1696.18 1235.89 1833.41C1235.89 1970.64 1248.77 2094.85 1269.58 2184.72C1279.99 2229.67 1292.36 2265.97 1306.07 2291.01C1312.93 2303.53 1320.09 2313.19 1327.46 2319.71C1334.83 2326.22 1342.37 2329.56 1350 2329.56Z" stroke="#2B2C3B" stroke-width="2"/>
<path opacity="0.413793" d="M1393.24 2331.64C1400.85 2330.98 1408.06 2326.99 1414.83 2319.86C1421.61 2312.73 1427.91 2302.48 1433.64 2289.41C1445.12 2263.27 1454.28 2226.03 1460.73 2180.35C1473.63 2089 1475.63 1964.14 1463.67 1827.44C1451.71 1690.73 1428.06 1568.12 1399.49 1480.4C1385.21 1436.53 1369.72 1401.45 1353.88 1377.69C1345.96 1365.82 1337.98 1356.82 1330.07 1350.97C1322.16 1345.12 1314.36 1342.46 1306.76 1343.12C1299.15 1343.79 1291.94 1347.77 1285.17 1354.9C1278.39 1362.03 1272.09 1372.28 1266.36 1385.35C1254.88 1411.49 1245.72 1448.74 1239.27 1494.42C1226.37 1585.76 1224.37 1710.62 1236.33 1847.33C1248.29 1984.04 1271.94 2106.65 1300.51 2194.36C1314.79 2238.23 1330.28 2273.32 1346.12 2297.07C1354.04 2308.94 1362.02 2317.94 1369.93 2323.79C1377.84 2329.64 1385.64 2332.31 1393.24 2331.64Z" stroke="#2B2C3B" stroke-width="2"/>
<path opacity="0.448276" d="M1436.16 2329.96C1443.67 2328.64 1450.51 2324.04 1456.64 2316.35C1462.77 2308.65 1468.15 2297.89 1472.72 2284.37C1481.87 2257.33 1487.76 2219.43 1490.2 2173.36C1495.09 2081.24 1486.2 1956.68 1462.37 1821.54C1438.54 1686.39 1404.29 1566.31 1368.19 1481.41C1350.14 1438.96 1331.65 1405.36 1313.8 1383.08C1304.88 1371.93 1296.14 1363.67 1287.75 1358.53C1279.36 1353.39 1271.36 1351.42 1263.85 1352.74C1256.33 1354.07 1249.49 1358.66 1243.36 1366.35C1237.23 1374.05 1231.85 1384.81 1227.28 1398.33C1218.13 1425.37 1212.24 1463.27 1209.8 1509.34C1204.91 1601.46 1213.8 1726.02 1237.63 1861.17C1261.46 1996.31 1295.71 2116.4 1331.81 2201.29C1349.86 2243.74 1368.35 2277.35 1386.2 2299.63C1395.13 2310.77 1403.86 2319.04 1412.25 2324.17C1420.64 2329.31 1428.64 2331.29 1436.16 2329.96Z" stroke="#2B2C3B" stroke-width="2"/>
<path opacity="0.482759" d="M1478.41 2324.56C1485.79 2322.58 1492.2 2317.41 1497.63 2309.21C1503.07 2301.01 1507.49 2289.82 1510.87 2275.96C1517.63 2248.22 1520.19 2209.95 1518.61 2163.84C1515.44 2071.65 1495.74 1948.34 1460.22 1815.78C1424.7 1683.23 1380.11 1566.59 1336.75 1485.16C1315.07 1444.44 1293.72 1412.58 1274 1391.94C1264.13 1381.62 1254.72 1374.14 1245.91 1369.76C1237.1 1365.37 1228.96 1364.1 1221.59 1366.08C1214.21 1368.05 1207.8 1373.23 1202.37 1381.42C1196.93 1389.63 1192.51 1400.81 1189.13 1414.68C1182.37 1442.42 1179.81 1480.69 1181.4 1526.79C1184.56 1618.99 1204.26 1742.3 1239.78 1874.85C1275.3 2007.41 1319.89 2124.05 1363.25 2205.47C1384.93 2246.19 1406.28 2278.05 1426 2298.69C1435.87 2309.02 1445.28 2316.49 1454.1 2320.88C1462.9 2325.26 1471.04 2326.54 1478.41 2324.56Z" stroke="#2B2C3B" stroke-width="2"/>
<path opacity="0.517241" d="M1519.69 2315.51C1526.87 2312.9 1532.8 2307.19 1537.5 2298.55C1542.2 2289.9 1545.63 2278.38 1547.79 2264.27C1552.1 2236.05 1551.32 2197.7 1545.73 2151.91C1534.54 2060.34 1504.16 1939.22 1457.23 1810.26C1410.29 1681.31 1355.71 1568.99 1305.41 1491.66C1280.26 1452.98 1256.22 1423.1 1234.77 1404.26C1224.05 1394.84 1214.01 1388.21 1204.85 1384.61C1195.7 1381.01 1187.48 1380.45 1180.31 1383.06C1173.13 1385.67 1167.2 1391.38 1162.5 1400.03C1157.8 1408.67 1154.37 1420.2 1152.21 1434.31C1147.9 1462.53 1148.68 1500.88 1154.28 1546.67C1165.46 1638.24 1195.84 1759.36 1242.77 1888.32C1289.71 2017.27 1344.29 2129.58 1394.59 2206.92C1419.74 2245.59 1443.78 2275.47 1465.23 2294.32C1475.95 2303.74 1485.99 2310.36 1495.15 2313.97C1504.3 2317.57 1512.52 2318.13 1519.69 2315.51Z" stroke="#2B2C3B" stroke-width="2"/>
<path opacity="0.551724" d="M1559.68 2302.92C1566.6 2299.69 1572.02 2293.49 1575.94 2284.47C1579.87 2275.44 1582.28 2263.66 1583.2 2249.42C1585.04 2220.93 1580.92 2182.8 1571.36 2137.67C1552.23 2047.42 1511.41 1929.41 1453.42 1805.03C1395.42 1680.66 1331.26 1573.53 1274.41 1500.87C1245.99 1464.54 1219.43 1436.87 1196.42 1419.97C1184.92 1411.51 1174.35 1405.79 1164.91 1403C1155.48 1400.21 1147.24 1400.37 1140.32 1403.59C1133.4 1406.82 1127.98 1413.03 1124.06 1422.04C1120.13 1431.07 1117.72 1442.85 1116.8 1457.1C1114.96 1485.58 1119.08 1523.72 1128.64 1568.85C1147.77 1659.09 1188.59 1777.11 1246.58 1901.48C1304.58 2025.85 1368.74 2132.98 1425.59 2205.64C1454.01 2241.97 1480.57 2269.64 1503.58 2286.55C1515.08 2295 1525.65 2300.73 1535.09 2303.52C1544.53 2306.3 1552.76 2306.15 1559.68 2302.92Z" stroke="#2B2C3B" stroke-width="2"/>
<path opacity="0.586207" d="M1598.07 2286.9C1604.69 2283.09 1609.54 2276.43 1612.67 2267.1C1615.79 2257.77 1617.17 2245.83 1616.84 2231.55C1616.19 2203.01 1608.76 2165.39 1595.3 2121.26C1568.39 2033.02 1517.44 1919.02 1448.82 1800.17C1380.21 1681.33 1306.95 1580.2 1243.99 1512.77C1212.51 1479.05 1183.64 1453.8 1159.24 1438.97C1147.05 1431.55 1136.01 1426.77 1126.37 1424.81C1116.73 1422.86 1108.54 1423.73 1101.93 1427.55C1095.31 1431.37 1090.46 1438.02 1087.33 1447.35C1084.21 1456.68 1082.83 1468.63 1083.16 1482.9C1083.81 1511.44 1091.24 1549.07 1104.7 1593.19C1131.61 1681.43 1182.56 1795.43 1251.18 1914.28C1319.8 2033.13 1393.05 2134.25 1456.01 2201.68C1487.49 2235.4 1516.36 2260.65 1540.76 2275.48C1552.95 2282.9 1563.99 2287.68 1573.63 2289.64C1583.27 2291.6 1591.46 2290.72 1598.07 2286.9Z" stroke="#2B2C3B" stroke-width="2"/>
<path opacity="0.62069" d="M1634.58 2267.62C1640.83 2263.24 1645.09 2256.18 1647.39 2246.62C1649.69 2237.05 1650.02 2225.03 1648.45 2210.84C1645.32 2182.47 1634.63 2145.63 1617.38 2102.85C1582.88 2017.29 1522.18 1908.16 1443.47 1795.74C1364.76 1683.33 1282.97 1588.97 1214.37 1527.29C1180.07 1496.44 1149.11 1473.81 1123.52 1461.16C1110.72 1454.83 1099.31 1451.03 1089.53 1449.92C1079.76 1448.81 1071.67 1450.4 1065.42 1454.77C1059.17 1459.15 1054.91 1466.21 1052.61 1475.77C1050.31 1485.34 1049.98 1497.36 1051.55 1511.55C1054.68 1539.92 1065.37 1576.76 1082.62 1619.54C1117.12 1705.1 1177.82 1814.23 1256.53 1926.64C1335.24 2039.06 1417.03 2133.41 1485.63 2195.1C1519.93 2225.95 1550.89 2248.58 1576.48 2261.23C1589.28 2267.56 1600.69 2271.36 1610.47 2272.47C1620.24 2273.58 1628.32 2271.99 1634.58 2267.62Z" stroke="#2B2C3B" stroke-width="2"/>
<path opacity="0.655172" d="M1668.92 2245.24C1674.77 2240.33 1678.39 2232.93 1679.85 2223.21C1681.31 2213.47 1680.59 2201.47 1677.79 2187.47C1672.19 2159.48 1658.34 2123.71 1637.42 2082.59C1595.59 2000.37 1525.62 1896.94 1437.41 1791.82C1349.2 1686.69 1259.5 1599.82 1185.79 1544.35C1148.93 1516.61 1116.11 1496.76 1089.51 1486.39C1076.21 1481.2 1064.52 1478.41 1054.68 1478.15C1044.85 1477.9 1036.93 1480.19 1031.08 1485.09C1025.23 1490 1021.61 1497.4 1020.15 1507.13C1018.69 1516.86 1019.41 1528.86 1022.21 1542.86C1027.81 1570.85 1041.66 1606.62 1062.58 1647.74C1104.41 1729.96 1174.38 1833.39 1262.59 1938.51C1350.8 2043.64 1440.5 2130.51 1514.21 2185.98C1551.07 2213.72 1583.89 2233.57 1610.49 2243.94C1623.79 2249.13 1635.48 2251.92 1645.32 2252.18C1655.15 2252.43 1663.07 2250.14 1668.92 2245.24Z" stroke="#2B2C3B" stroke-width="2"/>
<path opacity="0.689655" d="M1700.83 2219.96C1706.23 2214.57 1709.19 2206.88 1709.8 2197.06C1710.41 2187.24 1708.64 2175.34 1704.63 2161.64C1696.62 2134.24 1679.7 2099.82 1655.28 2060.68C1606.44 1982.42 1527.72 1885.48 1430.69 1788.45C1333.65 1691.41 1236.71 1612.69 1158.45 1563.85C1119.31 1539.43 1084.89 1522.51 1057.49 1514.5C1043.79 1510.49 1031.9 1508.73 1022.07 1509.33C1012.25 1509.94 1004.57 1512.91 999.171 1518.3C993.772 1523.7 990.805 1531.39 990.2 1541.2C989.594 1551.03 991.36 1562.92 995.367 1576.62C1003.38 1604.02 1020.3 1638.45 1044.72 1677.58C1093.56 1755.85 1172.28 1852.78 1269.31 1949.82C1366.35 2046.86 1463.29 2125.58 1541.55 2174.41C1580.69 2198.84 1615.11 2215.75 1642.51 2223.77C1656.21 2227.77 1668.1 2229.54 1677.93 2228.93C1687.75 2228.33 1695.43 2225.36 1700.83 2219.96Z" stroke="#2B2C3B" stroke-width="2"/>
<path opacity="0.724138" d="M1730.07 2192.02C1734.98 2186.17 1737.26 2178.26 1737.01 2168.43C1736.76 2158.59 1733.96 2146.89 1728.78 2133.59C1718.41 2106.99 1698.55 2074.18 1670.81 2037.32C1615.34 1963.61 1528.47 1873.9 1423.35 1785.69C1318.22 1697.48 1214.8 1627.51 1132.57 1585.68C1091.45 1564.76 1055.69 1550.91 1027.7 1545.31C1013.7 1542.52 1001.69 1541.79 991.96 1543.25C982.234 1544.71 974.836 1548.34 969.929 1554.19C965.022 1560.03 962.736 1567.95 962.988 1577.78C963.241 1587.62 966.037 1599.32 971.223 1612.61C981.594 1639.21 1001.45 1672.03 1029.19 1708.89C1084.66 1782.6 1171.53 1872.3 1276.65 1960.51C1381.78 2048.73 1485.21 2118.7 1567.43 2160.53C1608.55 2181.44 1644.31 2195.3 1672.31 2200.89C1686.3 2203.69 1698.31 2204.41 1708.04 2202.95C1717.77 2201.49 1725.16 2197.87 1730.07 2192.02Z" stroke="#2B2C3B" stroke-width="2"/>
<path opacity="0.758621" d="M1756.42 2161.65C1760.8 2155.4 1762.39 2147.31 1761.28 2137.54C1760.17 2127.76 1756.36 2116.35 1750.04 2103.56C1737.39 2077.96 1714.75 2047 1683.9 2012.7C1622.22 1944.11 1527.86 1862.31 1415.45 1783.6C1303.04 1704.89 1193.9 1644.2 1108.35 1609.69C1065.56 1592.44 1028.73 1581.76 1000.35 1578.62C986.165 1577.05 974.144 1577.38 964.574 1579.68C955.012 1581.98 947.959 1586.24 943.58 1592.49C939.201 1598.75 937.614 1606.83 938.722 1616.6C939.831 1626.38 943.635 1637.79 949.961 1650.59C962.611 1676.18 985.249 1707.14 1016.1 1741.44C1077.78 1810.04 1172.14 1891.83 1284.55 1970.54C1396.96 2049.26 1506.1 2109.95 1591.65 2144.45C1634.44 2161.71 1671.27 2172.39 1699.65 2175.52C1713.84 2177.09 1725.86 2176.77 1735.43 2174.46C1744.99 2172.16 1752.04 2167.91 1756.42 2161.65Z" stroke="#2B2C3B" stroke-width="2"/>
<path opacity="0.793103" d="M1779.68 2129.12C1783.49 2122.5 1784.37 2114.31 1782.41 2104.67C1780.46 2095.03 1775.67 2084 1768.26 2071.8C1753.42 2047.41 1728.17 2018.54 1694.45 1987.05C1627.03 1924.09 1525.9 1850.84 1407.05 1782.22C1288.21 1713.61 1174.2 1662.66 1085.97 1635.74C1041.84 1622.28 1004.21 1614.85 975.672 1614.2C961.401 1613.87 949.454 1615.25 940.122 1618.38C930.797 1621.5 924.141 1626.36 920.324 1632.97C916.506 1639.58 915.63 1647.77 917.586 1657.41C919.543 1667.06 924.327 1678.09 931.744 1690.29C946.576 1714.68 971.826 1743.55 1005.55 1775.03C1072.97 1837.99 1174.1 1911.25 1292.95 1979.86C1411.79 2048.48 1525.8 2099.43 1614.03 2126.34C1658.16 2139.8 1695.79 2147.24 1724.33 2147.88C1738.6 2148.21 1750.55 2146.84 1759.88 2143.71C1769.2 2140.58 1775.86 2135.73 1779.68 2129.12Z" stroke="#2B2C3B" stroke-width="2"/>
<path opacity="0.827586" d="M1799.66 2094.69C1802.89 2087.77 1803.05 2079.54 1800.26 2070.11C1797.47 2060.67 1791.74 2050.09 1783.29 2038.59C1766.39 2015.58 1738.72 1989.02 1702.38 1960.6C1629.72 1903.76 1522.6 1839.59 1398.22 1781.59C1273.85 1723.6 1155.84 1682.78 1065.59 1663.66C1020.46 1654.09 982.328 1649.97 953.839 1651.81C939.594 1652.73 927.813 1655.14 918.789 1659.07C909.772 1662.99 903.564 1668.41 900.338 1675.33C897.111 1682.25 896.952 1690.49 899.74 1699.92C902.531 1709.36 908.258 1719.93 916.71 1731.43C933.612 1754.44 961.282 1781 997.618 1809.43C1070.28 1866.27 1177.4 1930.43 1301.78 1988.43C1426.15 2046.42 1544.16 2087.24 1634.41 2106.37C1679.54 2115.93 1717.67 2120.05 1746.16 2118.21C1760.41 2117.29 1772.19 2114.88 1781.21 2110.95C1790.23 2107.03 1796.44 2101.61 1799.66 2094.69Z" stroke="#2B2C3B" stroke-width="2"/>
<path opacity="0.862069" d="M1816.23 2058.67C1818.84 2051.5 1818.28 2043.28 1814.68 2034.13C1811.08 2024.97 1804.45 2014.93 1795.03 2004.21C1776.18 1982.76 1746.3 1958.72 1707.63 1933.57C1630.29 1883.27 1517.98 1828.69 1389.03 1781.75C1260.07 1734.82 1138.95 1704.44 1047.38 1693.26C1001.59 1687.66 963.241 1686.88 935.021 1691.19C920.911 1693.35 909.384 1696.78 900.737 1701.48C892.096 1706.18 886.384 1712.11 883.773 1719.29C881.162 1726.46 881.722 1734.68 885.321 1743.83C888.924 1752.99 895.551 1763.03 904.973 1773.75C923.816 1795.2 953.696 1819.24 992.37 1844.39C1069.71 1894.69 1182.02 1949.27 1310.97 1996.21C1439.93 2043.14 1561.05 2073.52 1652.62 2084.71C1698.41 2090.3 1736.76 2091.08 1764.98 2086.77C1779.09 2084.61 1790.61 2081.18 1799.26 2076.48C1807.9 2071.78 1813.61 2065.85 1816.23 2058.67Z" stroke="#2B2C3B" stroke-width="2"/>
<path opacity="0.896552" d="M1829.24 2021.36C1831.22 2013.99 1829.94 2005.85 1825.56 1997.04C1821.17 1988.23 1813.7 1978.82 1803.38 1968.95C1782.74 1949.23 1750.87 1927.88 1710.15 1906.2C1628.73 1862.84 1512.09 1818.25 1379.53 1782.73C1246.98 1747.21 1123.67 1727.51 1031.47 1724.34C985.368 1722.76 947.099 1725.32 919.363 1732.08C905.494 1735.46 894.31 1739.88 886.105 1745.32C877.907 1750.75 872.734 1757.16 870.758 1764.54C868.782 1771.91 870.056 1780.05 874.439 1788.85C878.827 1797.67 886.303 1807.08 896.624 1816.95C917.264 1836.67 949.126 1858.02 989.846 1879.7C1071.27 1923.06 1187.91 1967.65 1320.47 2003.17C1453.02 2038.69 1576.33 2058.39 1668.53 2061.55C1714.63 2063.14 1752.9 2060.58 1780.64 2053.82C1794.51 2050.44 1805.69 2046.02 1813.9 2040.58C1822.09 2035.15 1827.27 2028.74 1829.24 2021.36Z" stroke="#2B2C3B" stroke-width="2"/>
<path opacity="0.931035" d="M1838.61 1983.07C1839.94 1975.56 1837.96 1967.56 1832.82 1959.17C1827.68 1950.77 1819.42 1942.04 1808.28 1933.12C1785.99 1915.27 1752.39 1896.78 1709.94 1878.73C1625.04 1842.63 1504.96 1808.37 1369.81 1784.54C1234.67 1760.71 1110.11 1751.83 1017.99 1756.72C971.922 1759.16 934.023 1765.05 906.981 1774.2C893.459 1778.77 882.703 1784.15 875.003 1790.28C867.31 1796.41 862.716 1803.25 861.39 1810.76C860.064 1818.28 862.042 1826.28 867.176 1834.67C872.315 1843.06 880.584 1851.79 891.725 1860.72C914.006 1878.57 947.607 1897.06 990.062 1915.11C1074.96 1951.21 1195.04 1985.46 1330.19 2009.29C1465.33 2033.12 1589.89 2042.01 1682.01 2037.12C1728.08 2034.68 1765.98 2028.79 1793.02 2019.64C1806.54 2015.07 1817.3 2009.69 1825 2003.56C1832.69 1997.43 1837.28 1990.59 1838.61 1983.07Z" stroke="#2B2C3B" stroke-width="2"/>
<path opacity="0.965517" d="M1844.26 1944.13C1844.92 1936.52 1842.26 1928.73 1836.41 1920.82C1830.56 1912.9 1821.56 1904.93 1809.69 1897.01C1785.93 1881.17 1750.85 1865.68 1706.98 1851.39C1619.27 1822.83 1496.65 1799.17 1359.94 1787.21C1223.24 1775.25 1098.38 1777.26 1007.03 1790.15C961.354 1796.6 924.112 1805.77 897.97 1817.24C884.899 1822.98 874.653 1829.27 867.516 1836.05C860.386 1842.83 856.405 1850.04 855.74 1857.64C855.075 1865.25 857.742 1873.04 863.588 1880.95C869.439 1888.87 878.437 1896.85 890.313 1904.77C914.065 1920.6 949.15 1936.1 993.017 1950.38C1080.73 1978.94 1203.35 2002.6 1340.05 2014.56C1476.76 2026.52 1601.62 2024.52 1692.96 2011.62C1738.64 2005.17 1775.89 1996 1802.03 1984.53C1815.1 1978.79 1825.35 1972.5 1832.48 1965.72C1839.61 1958.95 1843.59 1951.73 1844.26 1944.13Z" stroke="#2B2C3B" stroke-width="2"/>
<path d="M1846.15 1904.86C1846.15 1897.22 1842.81 1889.69 1836.3 1882.32C1829.78 1874.95 1820.12 1867.78 1807.6 1860.93C1782.56 1847.22 1746.26 1834.84 1701.31 1824.44C1611.44 1803.63 1487.23 1790.75 1350 1790.75C1212.77 1790.75 1088.56 1803.63 998.689 1824.44C953.745 1834.84 917.443 1847.22 892.401 1860.93C879.88 1867.78 870.22 1874.95 863.702 1882.32C857.189 1889.69 853.853 1897.22 853.853 1904.86C853.853 1912.49 857.189 1920.02 863.702 1927.39C870.22 1934.77 879.88 1941.93 892.401 1948.79C917.443 1962.49 953.745 1974.87 998.689 1985.28C1088.56 2006.09 1212.77 2018.97 1350 2018.97C1487.23 2018.97 1611.44 2006.09 1701.31 1985.28C1746.26 1974.87 1782.56 1962.49 1807.6 1948.79C1820.12 1941.93 1829.78 1934.77 1836.3 1927.39C1842.81 1920.02 1846.15 1912.49 1846.15 1904.86Z" stroke="#2B2C3B" stroke-width="2"/>
</g>
<path d="M1231.5 1698L1233.83 1722.46L1253.07 1706.79L1237.14 1725.7L1262 1728L1237.14 1730.3L1253.07 1749.21L1233.83 1733.54L1231.5 1758L1229.17 1733.54L1209.93 1749.21L1225.86 1730.3L1201 1728L1225.86 1725.7L1209.93 1706.79L1229.17 1722.46L1231.5 1698Z" fill="white"/>
<g clip-path="url(#clip1_106_2)">
<path d="M1194.67 570.826C1185.98 605.129 1161.67 633.789 1125.07 656.233C1088.46 678.679 1039.59 694.887 981.849 704.283C866.369 723.073 715.52 714.595 556.684 674.373C397.848 634.15 261.145 569.81 168.527 498.322C122.218 462.578 86.949 425.062 65.4386 387.899C43.9297 350.74 36.1923 313.964 44.8789 279.661C53.5655 245.359 77.8735 216.698 114.476 194.254C151.081 171.809 199.955 155.6 257.695 146.205C373.175 127.414 524.024 135.892 682.86 176.115C841.696 216.337 978.399 280.677 1071.02 352.165C1117.33 387.909 1152.6 425.426 1174.11 462.588C1195.61 499.748 1203.35 536.523 1194.67 570.826Z" stroke="url(#paint3_linear_106_2)"/>
<path d="M1455.27 636.82C1442.63 686.733 1407.27 728.418 1354.05 761.049C1300.83 793.681 1229.79 817.238 1145.88 830.892C978.06 858.199 758.855 845.877 528.054 787.431C297.254 728.984 98.6035 635.491 -35.9941 531.601C-103.294 479.656 -154.56 425.126 -185.833 371.098C-217.104 317.073 -228.368 263.58 -215.728 213.667C-203.088 163.754 -167.722 122.069 -114.507 89.4388C-61.2891 56.8067 9.75158 33.2494 93.663 19.5956C261.484 -7.71156 480.689 4.61041 711.49 63.0569C942.29 121.503 1140.94 214.996 1275.54 318.886C1342.84 370.831 1394.1 425.361 1425.38 479.389C1456.65 533.414 1467.91 586.908 1455.27 636.82Z" stroke="url(#paint4_linear_106_2)"/>
<path d="M1772.38 717.123C1754.93 786.03 1706.11 843.564 1632.68 888.589C1559.25 933.617 1461.23 966.116 1345.48 984.951C1113.97 1022.62 811.585 1005.62 493.217 925.001C174.849 844.379 -99.1792 715.413 -284.858 572.096C-377.698 500.437 -448.431 425.205 -491.582 350.655C-534.732 276.107 -550.287 202.272 -532.837 133.365C-515.388 64.4573 -466.566 6.92394 -393.136 -38.1017C-319.704 -83.129 -221.69 -115.628 -105.933 -134.464C125.577 -172.134 427.959 -155.135 746.327 -74.5132C1064.7 6.10825 1338.72 135.075 1524.4 278.392C1617.24 350.051 1687.97 425.283 1731.13 499.833C1774.28 574.38 1789.83 648.216 1772.38 717.123Z" stroke="url(#paint5_linear_106_2)"/>
</g>
<path d="M148 1326.97C133.485 1328.29 125.146 1329.51 120.026 1333.51C114.009 1338.21 112.583 1346.81 111 1364C109.364 1346.17 107.886 1337.63 101.288 1333.04C96.1683 1329.45 87.8816 1328.29 74 1327.03C88.4622 1325.71 96.8545 1324.49 101.922 1320.54C107.991 1315.79 109.417 1307.25 111 1290C112.478 1305.88 113.797 1314.37 118.706 1319.27C123.615 1324.18 132.165 1325.55 148 1326.97Z" fill="white"/>
<path d="M93.4708 1218.07C87.0714 1229.89 83.5357 1235.79 79.9708 1235.79C76.4058 1235.79 72.8701 1229.89 66.5 1218.07C72.8701 1229.89 75.9091 1236.13 74.1266 1239.41C72.3442 1242.68 65.7695 1243.02 53 1243.02C66.237 1243.02 72.8117 1243.37 74.3019 1246.99C75.7045 1250.35 72.6656 1256.56 66.5 1267.98C72.8993 1256.15 76.4351 1250.26 80 1250.26C83.5649 1250.26 87.1006 1256.15 93.5 1267.98C86.7208 1255.41 83.7403 1249.17 86.2532 1246.05C88.474 1243.3 95.0195 1243.02 107 1243.02C93.5 1243.02 86.9253 1242.65 85.6104 1238.81C84.4123 1235.38 87.4513 1229.21 93.4708 1218.07Z" fill="white"/>
<g clip-path="url(#clip2_106_2)">
<path d="M1194.67 570.826C1185.98 605.129 1161.67 633.789 1125.07 656.233C1088.46 678.679 1039.59 694.887 981.849 704.283C866.369 723.073 715.52 714.595 556.684 674.373C397.848 634.15 261.145 569.81 168.527 498.322C122.218 462.578 86.949 425.062 65.4386 387.899C43.9297 350.74 36.1923 313.964 44.8789 279.661C53.5655 245.359 77.8735 216.698 114.476 194.254C151.081 171.809 199.955 155.6 257.695 146.205C373.175 127.414 524.024 135.892 682.86 176.115C841.696 216.337 978.399 280.677 1071.02 352.165C1117.33 387.909 1152.6 425.426 1174.11 462.588C1195.61 499.748 1203.35 536.523 1194.67 570.826Z" stroke="url(#paint6_linear_106_2)"/>
<path d="M1455.27 636.82C1442.63 686.733 1407.27 728.418 1354.05 761.049C1300.83 793.681 1229.79 817.238 1145.88 830.892C978.06 858.199 758.855 845.877 528.054 787.431C297.254 728.984 98.6035 635.491 -35.9941 531.601C-103.294 479.656 -154.56 425.126 -185.833 371.098C-217.104 317.073 -228.368 263.58 -215.728 213.667C-203.088 163.754 -167.722 122.069 -114.507 89.4388C-61.2891 56.8067 9.75158 33.2494 93.663 19.5956C261.484 -7.71156 480.689 4.61041 711.49 63.0569C942.29 121.503 1140.94 214.996 1275.54 318.886C1342.84 370.831 1394.1 425.361 1425.38 479.389C1456.65 533.414 1467.91 586.908 1455.27 636.82Z" stroke="url(#paint7_linear_106_2)"/>
<path d="M1772.38 717.123C1754.93 786.03 1706.11 843.564 1632.68 888.589C1559.25 933.617 1461.23 966.116 1345.48 984.951C1113.97 1022.62 811.585 1005.62 493.217 925.001C174.849 844.379 -99.1792 715.413 -284.858 572.096C-377.698 500.437 -448.431 425.205 -491.582 350.655C-534.732 276.107 -550.287 202.272 -532.837 133.365C-515.388 64.4573 -466.566 6.92394 -393.136 -38.1017C-319.704 -83.129 -221.69 -115.628 -105.933 -134.464C125.577 -172.134 427.959 -155.135 746.327 -74.5132C1064.7 6.10825 1338.72 135.075 1524.4 278.392C1617.24 350.051 1687.97 425.283 1731.13 499.833C1774.28 574.38 1789.83 648.216 1772.38 717.123Z" stroke="url(#paint8_linear_106_2)"/>
</g>
</g>
<defs>
<linearGradient id="paint0_linear_106_2" x1="1249.8" y1="4437.96" x2="253.739" y2="4851.19" gradientUnits="userSpaceOnUse">
<stop stop-color="#484848"/>
<stop offset="0.491388" stop-color="#484848" stop-opacity="0.36"/>
<stop offset="1" stop-color="#484848"/>
</linearGradient>
<linearGradient id="paint1_linear_106_2" x1="1492.15" y1="4363.02" x2="44.9455" y2="4963.42" gradientUnits="userSpaceOnUse">
<stop stop-color="#484848"/>
<stop offset="0.491388" stop-color="#484848" stop-opacity="0.36"/>
<stop offset="1" stop-color="#484848"/>
</linearGradient>
<linearGradient id="paint2_linear_106_2" x1="1787.05" y1="4271.84" x2="-209.117" y2="5099.98" gradientUnits="userSpaceOnUse">
<stop stop-color="#484848"/>
<stop offset="0.491388" stop-color="#484848" stop-opacity="0.36"/>
<stop offset="1" stop-color="#484848"/>
</linearGradient>
<linearGradient id="paint3_linear_106_2" x1="84.6959" y1="259.796" x2="1080.76" y2="673.025" gradientUnits="userSpaceOnUse">
<stop stop-color="#484848"/>
<stop offset="0.491388" stop-color="#484848" stop-opacity="0.36"/>
<stop offset="1" stop-color="#484848"/>
</linearGradient>
<linearGradient id="paint4_linear_106_2" x1="-157.657" y1="184.859" x2="1289.55" y2="785.253" gradientUnits="userSpaceOnUse">
<stop stop-color="#484848"/>
<stop offset="0.491388" stop-color="#484848" stop-opacity="0.36"/>
<stop offset="1" stop-color="#484848"/>
</linearGradient>
<linearGradient id="paint5_linear_106_2" x1="-452.555" y1="93.6755" x2="1543.61" y2="921.813" gradientUnits="userSpaceOnUse">
<stop stop-color="#484848"/>
<stop offset="0.491388" stop-color="#484848" stop-opacity="0.36"/>
<stop offset="1" stop-color="#484848"/>
</linearGradient>
<linearGradient id="paint6_linear_106_2" x1="84.6959" y1="259.796" x2="1080.76" y2="673.025" gradientUnits="userSpaceOnUse">
<stop stop-color="#484848"/>
<stop offset="0.491388" stop-color="#484848" stop-opacity="0.36"/>
<stop offset="1" stop-color="#484848"/>
</linearGradient>
<linearGradient id="paint7_linear_106_2" x1="-157.657" y1="184.859" x2="1289.55" y2="785.253" gradientUnits="userSpaceOnUse">
<stop stop-color="#484848"/>
<stop offset="0.491388" stop-color="#484848" stop-opacity="0.36"/>
<stop offset="1" stop-color="#484848"/>
</linearGradient>
<linearGradient id="paint8_linear_106_2" x1="-452.555" y1="93.6755" x2="1543.61" y2="921.813" gradientUnits="userSpaceOnUse">
<stop stop-color="#484848"/>
<stop offset="0.491388" stop-color="#484848" stop-opacity="0.36"/>
<stop offset="1" stop-color="#484848"/>
</linearGradient>
<clipPath id="clip0_106_2">
<rect width="1440" height="4942" fill="white"/>
</clipPath>
<clipPath id="clip1_106_2">
<rect width="1440" height="426" fill="white" transform="translate(0 791)"/>
</clipPath>
<clipPath id="clip2_106_2">
<rect width="1440" height="821" fill="white"/>
</clipPath>
</defs>
</svg>
